<?xml version="1.0" encoding="UTF-8" standalone="no"?>
<!-- Generator: Adobe Illustrator 19.0.0, SVG Export Plug-In . SVG Version: 6.00 Build 0)  -->

<svg
   xmlns:dc="http://purl.org/dc/elements/1.1/"
   xmlns:cc="http://creativecommons.org/ns#"
   xmlns:rdf="http://www.w3.org/1999/02/22-rdf-syntax-ns#"
   xmlns:svg="http://www.w3.org/2000/svg"
   xmlns="http://www.w3.org/2000/svg"
   xmlns:sodipodi="http://sodipodi.sourceforge.net/DTD/sodipodi-0.dtd"
   xmlns:inkscape="http://www.inkscape.org/namespaces/inkscape"
   version="1.1"
   id="Layer_1"
   x="0px"
   y="0px"
   viewBox="0 0 512 512"
   style="enable-background:new 0 0 512 512;"
   xml:space="preserve"
   sodipodi:docname="mobile-phone.svg"
   inkscape:version="0.92.1 r15371"><metadata
     id="metadata41"><rdf:RDF><cc:Work
         rdf:about=""><dc:format>image/svg+xml</dc:format><dc:type
           rdf:resource="http://purl.org/dc/dcmitype/StillImage" /></cc:Work></rdf:RDF></metadata><defs
     id="defs39" /><sodipodi:namedview
     pagecolor="#ffffff"
     bordercolor="#666666"
     borderopacity="1"
     objecttolerance="10"
     gridtolerance="10"
     guidetolerance="10"
     inkscape:pageopacity="0"
     inkscape:pageshadow="2"
     inkscape:window-width="1440"
     inkscape:window-height="845"
     id="namedview37"
     showgrid="false"
     inkscape:zoom="0.4609375"
     inkscape:cx="575.60139"
     inkscape:cy="340.95883"
     inkscape:window-x="0"
     inkscape:window-y="27"
     inkscape:window-maximized="1"
     inkscape:current-layer="Layer_1" /><path
     style="fill:#3e9efe;fill-opacity:1"
     d="m 256,0 c 141.385,0 256,114.615 256,256.001 0,53.507 -16.426,103.174 -44.497,144.252 L 501.129,501.129 400.252,467.504 C 359.174,495.574 309.509,512 256,512 114.615,512 0,397.385 0,256.001 0,114.615 114.615,0 256,0 Z"
     id="path2"
     inkscape:connector-curvature="0" /><path
     style="fill:#c9e3fe;fill-opacity:1"
     d="M375.744,332.549c-19.326-19.325-40.026-35.594-40.026-35.594l-30.158,30.159L184.887,206.44  l30.159-30.158c0,0-16.268-20.7-35.594-40.026c-19.326-19.325-40.025-35.594-40.025-35.594s-36.137,33.244-38.567,59.61  c-3.252,35.293,34.106,99.459,92.758,158.111s122.817,96.01,158.11,92.757c26.367-2.431,59.61-38.566,59.61-38.566  S395.069,351.876,375.744,332.549z"
     id="path4" /><g
     id="g6" /><g
     id="g8" /><g
     id="g10" /><g
     id="g12" /><g
     id="g14" /><g
     id="g16" /><g
     id="g18" /><g
     id="g20" /><g
     id="g22" /><g
     id="g24" /><g
     id="g26" /><g
     id="g28" /><g
     id="g30" /><g
     id="g32" /><g
     id="g34" /></svg>