<?xml version="1.0" encoding="UTF-8" standalone="no"?>
<!-- Generator: Adobe Illustrator 19.0.0, SVG Export Plug-In . SVG Version: 6.00 Build 0)  -->

<svg
   xmlns:dc="http://purl.org/dc/elements/1.1/"
   xmlns:cc="http://creativecommons.org/ns#"
   xmlns:rdf="http://www.w3.org/1999/02/22-rdf-syntax-ns#"
   xmlns:svg="http://www.w3.org/2000/svg"
   xmlns="http://www.w3.org/2000/svg"
   xmlns:sodipodi="http://sodipodi.sourceforge.net/DTD/sodipodi-0.dtd"
   xmlns:inkscape="http://www.inkscape.org/namespaces/inkscape"
   version="1.1"
   id="Layer_1"
   x="0px"
   y="0px"
   viewBox="0 0 512 512"
   style="enable-background:new 0 0 512 512;"
   xml:space="preserve"
   sodipodi:docname="phone-talk.svg"
   inkscape:version="0.92.1 r15371"><metadata
     id="metadata49"><rdf:RDF><cc:Work
         rdf:about=""><dc:format>image/svg+xml</dc:format><dc:type
           rdf:resource="http://purl.org/dc/dcmitype/StillImage" /></cc:Work></rdf:RDF></metadata><defs
     id="defs47" /><sodipodi:namedview
     pagecolor="#ffffff"
     bordercolor="#666666"
     borderopacity="1"
     objecttolerance="10"
     gridtolerance="10"
     guidetolerance="10"
     inkscape:pageopacity="0"
     inkscape:pageshadow="2"
     inkscape:window-width="1440"
     inkscape:window-height="845"
     id="namedview45"
     showgrid="false"
     inkscape:zoom="0.65186406"
     inkscape:cx="465.20771"
     inkscape:cy="248.32508"
     inkscape:window-x="0"
     inkscape:window-y="27"
     inkscape:window-maximized="1"
     inkscape:current-layer="Layer_1" /><path
     style="fill:#3e9efe;fill-opacity:1"
     d="M512,129.029C512,57.77,439.257,0,349.533,0c-89.731,0-162.467,57.77-162.467,129.029  c0,63.663,58.056,116.554,134.419,127.108h-0.231c4.007,24.614-3.386,50.749-22.191,69.733c40.349,0,73.657-30.389,78.716-69.729  h-0.231C453.921,245.596,512,192.701,512,129.029z"
     id="path2" /><g
     id="g10"
     style="fill:#c9e3fe;fill-opacity:1"><circle
       style="fill:#c9e3fe;fill-opacity:1"
       cx="292.261"
       cy="129.024"
       r="11.378"
       id="circle4" /><circle
       style="fill:#c9e3fe;fill-opacity:1"
       cx="406.801"
       cy="129.024"
       r="11.378"
       id="circle6" /><circle
       style="fill:#c9e3fe;fill-opacity:1"
       cx="349.536"
       cy="129.024"
       r="11.378"
       id="circle8" /></g><path
     style="fill:#c9e3fe;fill-opacity:1"
     d="M349.998,411.754c-24.59-24.589-50.926-45.288-50.926-45.288L260.7,404.838L107.162,251.3  l38.372-38.373c0,0-20.698-26.336-45.288-50.926c-24.59-24.589-50.926-45.288-50.926-45.288S3.343,159.01,0.25,192.558  c-4.137,44.904,43.395,126.545,118.021,201.172c74.626,74.625,156.267,122.157,201.171,118.021  c33.547-3.094,75.845-49.071,75.845-49.071S374.588,436.342,349.998,411.754z"
     id="path12" /><g
     id="g14" /><g
     id="g16" /><g
     id="g18" /><g
     id="g20" /><g
     id="g22" /><g
     id="g24" /><g
     id="g26" /><g
     id="g28" /><g
     id="g30" /><g
     id="g32" /><g
     id="g34" /><g
     id="g36" /><g
     id="g38" /><g
     id="g40" /><g
     id="g42" /></svg>